<svg width="113" height="77" viewBox="0 0 113 77" fill="none" xmlns="http://www.w3.org/2000/svg">
<circle cx="2.67456" cy="3.57983" r="2.67456" fill="white"/>
<circle cx="64.1893" cy="3.57983" r="2.67456" fill="white"/>
<circle cx="2.67456" cy="49.7159" r="2.67456" fill="white"/>
<circle cx="64.1893" cy="49.7159" r="2.67456" fill="white"/>
<circle cx="33.4319" cy="3.57983" r="2.67456" fill="white"/>
<circle cx="94.9466" cy="3.57983" r="2.67456" fill="white"/>
<circle cx="33.4319" cy="49.7159" r="2.67456" fill="white"/>
<circle cx="94.9466" cy="49.7159" r="2.67456" fill="white"/>
<circle cx="2.67456" cy="18.9585" r="2.67456" fill="white"/>
<circle cx="64.1893" cy="18.9585" r="2.67456" fill="white"/>
<circle cx="2.67456" cy="65.0946" r="2.67456" fill="white"/>
<circle cx="64.1893" cy="65.0946" r="2.67456" fill="white"/>
<circle cx="2.67456" cy="34.3372" r="2.67456" fill="white"/>
<circle cx="64.1893" cy="34.3372" r="2.67456" fill="white"/>
<circle cx="33.4319" cy="18.9585" r="2.67456" fill="white"/>
<circle cx="94.9466" cy="18.9585" r="2.67456" fill="white"/>
<circle cx="33.4319" cy="65.0946" r="2.67456" fill="white"/>
<circle cx="94.9466" cy="65.0946" r="2.67456" fill="white"/>
<circle cx="33.4319" cy="34.3372" r="2.67456" fill="white"/>
<circle cx="94.9466" cy="34.3372" r="2.67456" fill="white"/>
<circle cx="18.0532" cy="3.57983" r="2.67456" fill="white"/>
<circle cx="79.568" cy="3.57983" r="2.67456" fill="white"/>
<circle cx="18.0532" cy="49.7159" r="2.67456" fill="white"/>
<circle cx="79.568" cy="49.7159" r="2.67456" fill="white"/>
<circle cx="48.8107" cy="3.57983" r="2.67456" fill="white"/>
<circle cx="110.325" cy="3.57983" r="2.67456" fill="white"/>
<circle cx="48.8107" cy="49.7159" r="2.67456" fill="white"/>
<circle cx="110.325" cy="49.7159" r="2.67456" fill="white"/>
<circle cx="18.0532" cy="18.9585" r="2.67456" fill="white"/>
<circle cx="79.568" cy="18.9585" r="2.67456" fill="white"/>
<circle cx="18.0532" cy="65.0946" r="2.67456" fill="white"/>
<circle cx="79.568" cy="65.0946" r="2.67456" fill="white"/>
<circle cx="18.0532" cy="34.3372" r="2.67456" fill="white"/>
<circle cx="79.568" cy="34.3372" r="2.67456" fill="white"/>
<circle cx="48.8107" cy="18.9585" r="2.67456" fill="white"/>
<circle cx="110.325" cy="18.9585" r="2.67456" fill="white"/>
<circle cx="48.8107" cy="65.0946" r="2.67456" fill="white"/>
<circle cx="110.325" cy="65.0946" r="2.67456" fill="white"/>
<circle cx="48.8107" cy="34.3372" r="2.67456" fill="white"/>
<circle cx="110.325" cy="34.3372" r="2.67456" fill="white"/>
</svg>
