<svg width="87" height="55" viewBox="0 0 87 55" fill="none" xmlns="http://www.w3.org/2000/svg">
<path d="M85.479 42.335C81.3293 38.228 73.6515 34.7933 67.4361 33.4076C71.5264 28.1938 73.9851 21.672 74.0217 14.6518C74.0263 14.1899 73.8389 13.7371 73.5144 13.4124C73.1899 13.0877 72.742 12.9001 72.2759 12.9001C66.449 12.9322 58.5061 15.9003 53.1956 19.2573C52.4095 12.7309 49.5669 6.44242 44.6814 1.50308C44.3615 1.18294 43.9136 1 43.4475 1C42.9813 1 42.5289 1.18294 42.2135 1.50765C38.0136 5.7564 34.5631 13.3255 33.2515 19.5454C28.0964 15.4521 21.6388 12.9825 14.6831 12.9093C14.2306 12.923 13.7919 13.106 13.4811 13.4124C13.1566 13.7371 12.9693 14.1853 12.9693 14.6472V17.4416C12.9693 17.4965 12.9738 17.5559 12.9784 17.6154C13.44 22.1385 16.6619 29.2045 19.4543 33.7506C12.8824 34.496 6.5208 37.3362 1.52108 42.2343C1.19203 42.5591 1.00008 43.0072 1.00008 43.4646C0.995512 43.9265 1.18289 44.3793 1.50737 44.704L3.48166 46.6797C3.5228 46.7209 3.55936 46.7575 3.6142 46.7987C9.03895 51.2212 15.8941 53.6588 22.9139 53.6588H22.9687C27.6165 53.7 32.4152 52.8631 37.1087 50.0733C37.5063 49.8354 37.7897 49.4604 37.9085 49.0076C38.0227 48.5594 37.9542 48.0884 37.7211 47.6905C37.4835 47.2926 37.1041 47.009 36.6563 46.8901C36.2084 46.7712 35.7377 46.8444 35.3401 47.0822C31.1812 49.5519 27.845 50.1739 22.9779 50.183H22.9002C16.7076 50.1784 10.6659 48.0381 5.87641 44.1598L5.24574 43.5286C10.2637 39.2113 16.6802 36.9154 23.3937 37.0114C30.4363 37.1258 37.0493 39.8836 42.0079 44.7726L42.049 44.8138L42.0536 44.8183L42.0582 44.8229C47.8485 50.5489 55.5538 53.7 63.7617 53.7C71.9743 53.7 79.6886 50.5397 85.4836 44.8046C85.8126 44.4799 86 44.0317 86 43.5698C86 43.1079 85.8081 42.6597 85.479 42.335ZM23.4714 33.5585C23.4669 33.5493 23.4623 33.5402 23.4532 33.531C20.8345 29.7854 16.9179 21.8961 16.4426 17.3547V16.4629C22.7174 16.9431 28.6448 19.6369 33.2287 24.1143C37.5063 28.2944 40.2895 33.7003 41.1944 39.5268C35.9525 35.6394 29.7188 33.6637 23.4714 33.5585ZM36.2495 22.2575C36.2952 22.1385 36.3318 22.0151 36.3501 21.887C37.0996 16.7464 40.0564 9.19564 43.4475 5.28533C47.5743 10.0692 49.8822 16.1793 49.9691 22.605C50.0513 28.6191 48.1821 34.4503 44.6723 39.2479C43.7034 32.6849 40.6551 26.7989 36.2495 22.2575ZM53.4149 23.2728C53.4926 23.2316 53.5658 23.195 53.6389 23.1447C57.7429 20.1674 65.4344 16.8105 70.4798 16.4492C70.0182 22.7971 67.331 28.7929 62.8431 33.4304C58.6432 37.7706 53.2001 40.5879 47.323 41.5026C51.3401 36.1013 53.3601 29.6802 53.4149 23.2728ZM64.2736 50.2196C58.2227 50.3294 52.3958 48.4817 47.5972 44.9784C54.2284 44.0043 60.165 40.908 64.726 36.4306C69.8674 37.2035 77.8149 40.1946 81.7041 43.5698C76.8826 47.7499 70.7312 50.1007 64.2736 50.2196Z" fill="white" stroke="#40A0A6"/>
</svg>
